<svg viewBox="0 0 200 150" xmlns="http://www.w3.org/2000/svg">
  <path fill="#0B1B2B" d="M42.2,-68C54.3,-66.2,63.3,-54,71.6,-40.9C79.8,-27.9,87.2,-13.9,84.2,-1.7C81.1,10.4,67.7,20.9,58.7,32.7C49.8,44.4,45.3,57.5,36.2,61.2C27.2,64.9,13.6,59.2,1.9,56C-9.9,52.8,-19.8,52.1,-32.2,50.4C-44.7,48.6,-59.6,45.9,-71.2,37.3C-82.8,28.7,-91,14.4,-90.5,0.3C-90.1,-13.9,-81,-27.7,-71.8,-40.4C-62.7,-53.1,-53.3,-64.7,-41.3,-66.5C-29.3,-68.4,-14.7,-60.6,0.2,-60.9C15.1,-61.3,30.2,-69.8,42.2,-68Z" transform="translate(100 90)" />
</svg>