<svg id="visual" viewBox="0 0 2500 600" width="2500" height="600" xmlns="http://www.w3.org/2000/svg" xmlns:xlink="http://www.w3.org/1999/xlink" version="1.1"><path d="M0 327L34.7 321.3C69.3 315.7 138.7 304.3 208.2 305.3C277.7 306.3 347.3 319.7 416.8 330.3C486.3 341 555.7 349 625 344.7C694.3 340.3 763.7 323.7 833.2 324.8C902.7 326 972.3 345 1041.8 357.2C1111.3 369.3 1180.7 374.7 1250 383.2C1319.3 391.7 1388.7 403.3 1458.2 391.2C1527.7 379 1597.3 343 1666.8 343.7C1736.3 344.3 1805.7 381.7 1875 392.5C1944.3 403.3 2013.7 387.7 2083.2 371.8C2152.7 356 2222.3 340 2291.8 343.7C2361.3 347.3 2430.7 370.7 2465.3 382.3L2500 394L2500 601L2465.3 601C2430.7 601 2361.3 601 2291.8 601C2222.3 601 2152.7 601 2083.2 601C2013.7 601 1944.3 601 1875 601C1805.7 601 1736.3 601 1666.8 601C1597.3 601 1527.7 601 1458.2 601C1388.7 601 1319.3 601 1250 601C1180.7 601 1111.3 601 1041.8 601C972.3 601 902.7 601 833.2 601C763.7 601 694.3 601 625 601C555.7 601 486.3 601 416.8 601C347.3 601 277.7 601 208.2 601C138.7 601 69.3 601 34.7 601L0 601Z" fill="#0b1b2b"></path><path d="M0 507L34.7 499.8C69.3 492.7 138.7 478.3 208.2 463.8C277.7 449.3 347.3 434.7 416.8 446.7C486.3 458.7 555.7 497.3 625 510C694.3 522.7 763.7 509.3 833.2 499.7C902.7 490 972.3 484 1041.8 485.7C1111.3 487.3 1180.7 496.7 1250 492.5C1319.3 488.3 1388.7 470.7 1458.2 469C1527.7 467.3 1597.3 481.7 1666.8 476.8C1736.3 472 1805.7 448 1875 451.5C1944.3 455 2013.7 486 2083.2 493.5C2152.7 501 2222.3 485 2291.8 473.3C2361.3 461.7 2430.7 454.3 2465.3 450.7L2500 447L2500 601L2465.3 601C2430.7 601 2361.3 601 2291.8 601C2222.3 601 2152.7 601 2083.2 601C2013.7 601 1944.3 601 1875 601C1805.7 601 1736.3 601 1666.8 601C1597.3 601 1527.7 601 1458.2 601C1388.7 601 1319.3 601 1250 601C1180.7 601 1111.3 601 1041.8 601C972.3 601 902.7 601 833.2 601C763.7 601 694.3 601 625 601C555.7 601 486.3 601 416.8 601C347.3 601 277.7 601 208.2 601C138.7 601 69.3 601 34.7 601L0 601Z" fill="#0b1b2b"></path></svg>