<svg id="visual" viewBox="0 0 2500 650" width="2500" height="650" xmlns="http://www.w3.org/2000/svg" xmlns:xlink="http://www.w3.org/1999/xlink" version="1.1"><path d="M0 256L278 246L556 245L833 240L1111 283L1389 265L1667 327L1944 269L2222 280L2500 277L2500 651L2222 651L1944 651L1667 651L1389 651L1111 651L833 651L556 651L278 651L0 651Z" fill="#0b1b2b"></path><path d="M0 420L278 409L556 363L833 382L1111 357L1389 424L1667 380L1944 377L2222 359L2500 382L2500 651L2222 651L1944 651L1667 651L1389 651L1111 651L833 651L556 651L278 651L0 651Z" fill="#181e27"></path><path d="M0 477L278 480L556 492L833 488L1111 512L1389 482L1667 527L1944 529L2222 500L2500 520L2500 651L2222 651L1944 651L1667 651L1389 651L1111 651L833 651L556 651L278 651L0 651Z" fill="#222222"></path></svg>