<svg id="visual" viewBox="0 0 2500 650" width="2500" height="650" xmlns="http://www.w3.org/2000/svg" xmlns:xlink="http://www.w3.org/1999/xlink" version="1.1"><path d="M0 392L278 402L556 403L833 408L1111 365L1389 383L1667 321L1944 379L2222 368L2500 371L2500 0L2222 0L1944 0L1667 0L1389 0L1111 0L833 0L556 0L278 0L0 0Z" fill="#0b1b2b"></path><path d="M0 228L278 239L556 285L833 266L1111 291L1389 224L1667 268L1944 271L2222 289L2500 266L2500 0L2222 0L1944 0L1667 0L1389 0L1111 0L833 0L556 0L278 0L0 0Z" fill="#181e27"></path><path d="M0 171L278 168L556 156L833 160L1111 136L1389 166L1667 121L1944 119L2222 148L2500 128L2500 0L2222 0L1944 0L1667 0L1389 0L1111 0L833 0L556 0L278 0L0 0Z" fill="#222222"></path></svg>