<svg id="visual" viewBox="0 0 2500 650" width="2500" height="650" xmlns="http://www.w3.org/2000/svg" xmlns:xlink="http://www.w3.org/1999/xlink" version="1.1"><path d="M0 420L32 421.2C64 422.3 128 424.7 192.2 416.8C256.3 409 320.7 391 384.8 393.5C449 396 513 419 577 420.7C641 422.3 705 402.7 769.2 392.8C833.3 383 897.7 383 961.8 388.2C1026 393.3 1090 403.7 1154 405.5C1218 407.3 1282 400.7 1346 404.2C1410 407.7 1474 421.3 1538.2 425.3C1602.3 429.3 1666.7 423.7 1730.8 422.8C1795 422 1859 426 1923 421.2C1987 416.3 2051 402.7 2115.2 401.3C2179.3 400 2243.7 411 2307.8 417.5C2372 424 2436 426 2468 427L2500 428L2500 651L2468 651C2436 651 2372 651 2307.8 651C2243.7 651 2179.3 651 2115.2 651C2051 651 1987 651 1923 651C1859 651 1795 651 1730.8 651C1666.7 651 1602.3 651 1538.2 651C1474 651 1410 651 1346 651C1282 651 1218 651 1154 651C1090 651 1026 651 961.8 651C897.7 651 833.3 651 769.2 651C705 651 641 651 577 651C513 651 449 651 384.8 651C320.7 651 256.3 651 192.2 651C128 651 64 651 32 651L0 651Z" fill="#0a142f"></path><path d="M0 462L32 469.2C64 476.3 128 490.7 192.2 495.5C256.3 500.3 320.7 495.7 384.8 484.3C449 473 513 455 577 453.2C641 451.3 705 465.7 769.2 471.7C833.3 477.7 897.7 475.3 961.8 473.5C1026 471.7 1090 470.3 1154 468.7C1218 467 1282 465 1346 461.5C1410 458 1474 453 1538.2 455C1602.3 457 1666.7 466 1730.8 465.3C1795 464.7 1859 454.3 1923 453.3C1987 452.3 2051 460.7 2115.2 469.8C2179.3 479 2243.7 489 2307.8 483.8C2372 478.7 2436 458.3 2468 448.2L2500 438L2500 651L2468 651C2436 651 2372 651 2307.8 651C2243.7 651 2179.3 651 2115.2 651C2051 651 1987 651 1923 651C1859 651 1795 651 1730.8 651C1666.7 651 1602.3 651 1538.2 651C1474 651 1410 651 1346 651C1282 651 1218 651 1154 651C1090 651 1026 651 961.8 651C897.7 651 833.3 651 769.2 651C705 651 641 651 577 651C513 651 449 651 384.8 651C320.7 651 256.3 651 192.2 651C128 651 64 651 32 651L0 651Z" fill="#15192b"></path><path d="M0 530L32 525.7C64 521.3 128 512.7 192.2 507.7C256.3 502.7 320.7 501.3 384.8 505.7C449 510 513 520 577 527C641 534 705 538 769.2 533C833.3 528 897.7 514 961.8 512.2C1026 510.3 1090 520.7 1154 529.5C1218 538.3 1282 545.7 1346 539.7C1410 533.7 1474 514.3 1538.2 515C1602.3 515.7 1666.7 536.3 1730.8 547.2C1795 558 1859 559 1923 550C1987 541 2051 522 2115.2 513.3C2179.3 504.7 2243.7 506.3 2307.8 511.5C2372 516.7 2436 525.3 2468 529.7L2500 534L2500 651L2468 651C2436 651 2372 651 2307.8 651C2243.7 651 2179.3 651 2115.2 651C2051 651 1987 651 1923 651C1859 651 1795 651 1730.8 651C1666.7 651 1602.3 651 1538.2 651C1474 651 1410 651 1346 651C1282 651 1218 651 1154 651C1090 651 1026 651 961.8 651C897.7 651 833.3 651 769.2 651C705 651 641 651 577 651C513 651 449 651 384.8 651C320.7 651 256.3 651 192.2 651C128 651 64 651 32 651L0 651Z" fill="#1c1d27"></path><path d="M0 566L32 566.3C64 566.7 128 567.3 192.2 567C256.3 566.7 320.7 565.3 384.8 572.7C449 580 513 596 577 603.8C641 611.7 705 611.3 769.2 608.7C833.3 606 897.7 601 961.8 596.2C1026 591.3 1090 586.7 1154 582.2C1218 577.7 1282 573.3 1346 576.5C1410 579.7 1474 590.3 1538.2 590.2C1602.3 590 1666.7 579 1730.8 571.5C1795 564 1859 560 1923 563.8C1987 567.7 2051 579.3 2115.2 582.2C2179.3 585 2243.7 579 2307.8 574.3C2372 569.7 2436 566.3 2468 564.7L2500 563L2500 651L2468 651C2436 651 2372 651 2307.8 651C2243.7 651 2179.3 651 2115.2 651C2051 651 1987 651 1923 651C1859 651 1795 651 1730.8 651C1666.7 651 1602.3 651 1538.2 651C1474 651 1410 651 1346 651C1282 651 1218 651 1154 651C1090 651 1026 651 961.8 651C897.7 651 833.3 651 769.2 651C705 651 641 651 577 651C513 651 449 651 384.8 651C320.7 651 256.3 651 192.2 651C128 651 64 651 32 651L0 651Z" fill="#222222"></path></svg>