<svg id="visual" viewBox="0 0 2500 600" width="2500" height="600" xmlns="http://www.w3.org/2000/svg" xmlns:xlink="http://www.w3.org/1999/xlink" version="1.1"><path d="M0 153L37.8 153.2C75.7 153.3 151.3 153.7 227.2 150.7C303 147.7 379 141.3 454.8 130.8C530.7 120.3 606.3 105.7 682 115.2C757.7 124.7 833.3 158.3 909 161C984.7 163.7 1060.3 135.3 1136.2 123.3C1212 111.3 1288 115.7 1363.8 121C1439.7 126.3 1515.3 132.7 1591 140.5C1666.7 148.3 1742.3 157.7 1818 160.5C1893.7 163.3 1969.3 159.7 2045.2 147.7C2121 135.7 2197 115.3 2272.8 107.5C2348.7 99.7 2424.3 104.3 2462.2 106.7L2500 109L2500 0L2462.2 0C2424.3 0 2348.7 0 2272.8 0C2197 0 2121 0 2045.2 0C1969.3 0 1893.7 0 1818 0C1742.3 0 1666.7 0 1591 0C1515.3 0 1439.7 0 1363.8 0C1288 0 1212 0 1136.2 0C1060.3 0 984.7 0 909 0C833.3 0 757.7 0 682 0C606.3 0 530.7 0 454.8 0C379 0 303 0 227.2 0C151.3 0 75.7 0 37.8 0L0 0Z" fill="#e9e9e9"></path><path d="M0 106L37.8 111.2C75.7 116.3 151.3 126.7 227.2 129C303 131.3 379 125.7 454.8 114.3C530.7 103 606.3 86 682 87.8C757.7 89.7 833.3 110.3 909 111.5C984.7 112.7 1060.3 94.3 1136.2 84.2C1212 74 1288 72 1363.8 74.3C1439.7 76.7 1515.3 83.3 1591 92.7C1666.7 102 1742.3 114 1818 112C1893.7 110 1969.3 94 2045.2 86.5C2121 79 2197 80 2272.8 80.7C2348.7 81.3 2424.3 81.7 2462.2 81.8L2500 82L2500 0L2462.2 0C2424.3 0 2348.7 0 2272.8 0C2197 0 2121 0 2045.2 0C1969.3 0 1893.7 0 1818 0C1742.3 0 1666.7 0 1591 0C1515.3 0 1439.7 0 1363.8 0C1288 0 1212 0 1136.2 0C1060.3 0 984.7 0 909 0C833.3 0 757.7 0 682 0C606.3 0 530.7 0 454.8 0C379 0 303 0 227.2 0C151.3 0 75.7 0 37.8 0L0 0Z" fill="#222222"></path></svg>