<svg id="visual" viewBox="0 0 2500 650" width="2500" height="650" xmlns="http://www.w3.org/2000/svg" xmlns:xlink="http://www.w3.org/1999/xlink" version="1.1"><path d="M0 228L32 226.8C64 225.7 128 223.3 192.2 231.2C256.3 239 320.7 257 384.8 254.5C449 252 513 229 577 227.3C641 225.7 705 245.3 769.2 255.2C833.3 265 897.7 265 961.8 259.8C1026 254.7 1090 244.3 1154 242.5C1218 240.7 1282 247.3 1346 243.8C1410 240.3 1474 226.7 1538.2 222.7C1602.3 218.7 1666.7 224.3 1730.8 225.2C1795 226 1859 222 1923 226.8C1987 231.7 2051 245.3 2115.2 246.7C2179.3 248 2243.7 237 2307.8 230.5C2372 224 2436 222 2468 221L2500 220L2500 0L2468 0C2436 0 2372 0 2307.8 0C2243.7 0 2179.3 0 2115.2 0C2051 0 1987 0 1923 0C1859 0 1795 0 1730.8 0C1666.7 0 1602.3 0 1538.2 0C1474 0 1410 0 1346 0C1282 0 1218 0 1154 0C1090 0 1026 0 961.8 0C897.7 0 833.3 0 769.2 0C705 0 641 0 577 0C513 0 449 0 384.8 0C320.7 0 256.3 0 192.2 0C128 0 64 0 32 0L0 0Z" fill="#0a142f"></path><path d="M0 186L32 178.8C64 171.7 128 157.3 192.2 152.5C256.3 147.7 320.7 152.3 384.8 163.7C449 175 513 193 577 194.8C641 196.7 705 182.3 769.2 176.3C833.3 170.3 897.7 172.7 961.8 174.5C1026 176.3 1090 177.7 1154 179.3C1218 181 1282 183 1346 186.5C1410 190 1474 195 1538.2 193C1602.3 191 1666.7 182 1730.8 182.7C1795 183.3 1859 193.7 1923 194.7C1987 195.7 2051 187.3 2115.2 178.2C2179.3 169 2243.7 159 2307.8 164.2C2372 169.3 2436 189.7 2468 199.8L2500 210L2500 0L2468 0C2436 0 2372 0 2307.8 0C2243.7 0 2179.3 0 2115.2 0C2051 0 1987 0 1923 0C1859 0 1795 0 1730.8 0C1666.7 0 1602.3 0 1538.2 0C1474 0 1410 0 1346 0C1282 0 1218 0 1154 0C1090 0 1026 0 961.8 0C897.7 0 833.3 0 769.2 0C705 0 641 0 577 0C513 0 449 0 384.8 0C320.7 0 256.3 0 192.2 0C128 0 64 0 32 0L0 0Z" fill="#15192b"></path><path d="M0 118L32 122.3C64 126.7 128 135.3 192.2 140.3C256.3 145.3 320.7 146.7 384.8 142.3C449 138 513 128 577 121C641 114 705 110 769.2 115C833.3 120 897.7 134 961.8 135.8C1026 137.7 1090 127.3 1154 118.5C1218 109.7 1282 102.3 1346 108.3C1410 114.3 1474 133.7 1538.2 133C1602.3 132.3 1666.7 111.7 1730.8 100.8C1795 90 1859 89 1923 98C1987 107 2051 126 2115.2 134.7C2179.3 143.3 2243.7 141.7 2307.8 136.5C2372 131.3 2436 122.7 2468 118.3L2500 114L2500 0L2468 0C2436 0 2372 0 2307.8 0C2243.7 0 2179.3 0 2115.2 0C2051 0 1987 0 1923 0C1859 0 1795 0 1730.8 0C1666.7 0 1602.3 0 1538.2 0C1474 0 1410 0 1346 0C1282 0 1218 0 1154 0C1090 0 1026 0 961.8 0C897.7 0 833.3 0 769.2 0C705 0 641 0 577 0C513 0 449 0 384.8 0C320.7 0 256.3 0 192.2 0C128 0 64 0 32 0L0 0Z" fill="#1c1d27"></path><path d="M0 82L32 81.7C64 81.3 128 80.7 192.2 81C256.3 81.3 320.7 82.7 384.8 75.3C449 68 513 52 577 44.2C641 36.3 705 36.7 769.2 39.3C833.3 42 897.7 47 961.8 51.8C1026 56.7 1090 61.3 1154 65.8C1218 70.3 1282 74.7 1346 71.5C1410 68.3 1474 57.7 1538.2 57.8C1602.3 58 1666.7 69 1730.8 76.5C1795 84 1859 88 1923 84.2C1987 80.3 2051 68.7 2115.2 65.8C2179.3 63 2243.7 69 2307.8 73.7C2372 78.3 2436 81.7 2468 83.3L2500 85L2500 0L2468 0C2436 0 2372 0 2307.8 0C2243.7 0 2179.3 0 2115.2 0C2051 0 1987 0 1923 0C1859 0 1795 0 1730.8 0C1666.7 0 1602.3 0 1538.2 0C1474 0 1410 0 1346 0C1282 0 1218 0 1154 0C1090 0 1026 0 961.8 0C897.7 0 833.3 0 769.2 0C705 0 641 0 577 0C513 0 449 0 384.8 0C320.7 0 256.3 0 192.2 0C128 0 64 0 32 0L0 0Z" fill="#222222"></path></svg>