<svg id="visual" viewBox="0 0 2500 600" width="2500" height="600" xmlns="http://www.w3.org/2000/svg" xmlns:xlink="http://www.w3.org/1999/xlink" version="1.1"><path d="M0 445L37.8 444.8C75.7 444.7 151.3 444.3 227.2 447.3C303 450.3 379 456.7 454.8 467.2C530.7 477.7 606.3 492.3 682 482.8C757.7 473.3 833.3 439.7 909 437C984.7 434.3 1060.3 462.7 1136.2 474.7C1212 486.7 1288 482.3 1363.8 477C1439.7 471.7 1515.3 465.3 1591 457.5C1666.7 449.7 1742.3 440.3 1818 437.5C1893.7 434.7 1969.3 438.3 2045.2 450.3C2121 462.3 2197 482.7 2272.8 490.5C2348.7 498.3 2424.3 493.7 2462.2 491.3L2500 489L2500 601L2462.2 601C2424.3 601 2348.7 601 2272.8 601C2197 601 2121 601 2045.2 601C1969.3 601 1893.7 601 1818 601C1742.3 601 1666.7 601 1591 601C1515.3 601 1439.7 601 1363.8 601C1288 601 1212 601 1136.2 601C1060.3 601 984.7 601 909 601C833.3 601 757.7 601 682 601C606.3 601 530.7 601 454.8 601C379 601 303 601 227.2 601C151.3 601 75.7 601 37.8 601L0 601Z" fill="#e9e9e9"></path><path d="M0 492L37.8 486.8C75.7 481.7 151.3 471.3 227.2 469C303 466.7 379 472.3 454.8 483.7C530.7 495 606.3 512 682 510.2C757.7 508.3 833.3 487.7 909 486.5C984.7 485.3 1060.3 503.7 1136.2 513.8C1212 524 1288 526 1363.8 523.7C1439.7 521.3 1515.3 514.7 1591 505.3C1666.7 496 1742.3 484 1818 486C1893.7 488 1969.3 504 2045.2 511.5C2121 519 2197 518 2272.8 517.3C2348.7 516.7 2424.3 516.3 2462.2 516.2L2500 516L2500 601L2462.2 601C2424.3 601 2348.7 601 2272.8 601C2197 601 2121 601 2045.2 601C1969.3 601 1893.7 601 1818 601C1742.3 601 1666.7 601 1591 601C1515.3 601 1439.7 601 1363.8 601C1288 601 1212 601 1136.2 601C1060.3 601 984.7 601 909 601C833.3 601 757.7 601 682 601C606.3 601 530.7 601 454.8 601C379 601 303 601 227.2 601C151.3 601 75.7 601 37.8 601L0 601Z" fill="#222222"></path></svg>