<svg id="visual" viewBox="0 0 2500 600" width="2500" height="600" xmlns="http://www.w3.org/2000/svg" xmlns:xlink="http://www.w3.org/1999/xlink" version="1.1">
  <path id="wave1" d="M0 153L37.8 153.2C75.7 153.3 151.3 153.7 227.2 150.7C303 147.7 379 141.3 454.8 130.8C530.7 120.3 606.3 105.7 682 115.2C757.7 124.7 833.3 158.3 909 161C984.7 163.7 1060.3 135.3 1136.2 123.3C1212 111.3 1288 115.7 1363.8 121C1439.7 126.3 1515.3 132.7 1591 140.5C1666.7 148.3 1742.3 157.7 1818 160.5C1893.7 163.3 1969.3 159.7 2045.2 147.7C2121 135.7 2197 115.3 2272.8 107.5C2348.7 99.7 2424.3 104.3 2462.2 106.7L2500 109L2500 0L2462.2 0C2424.3 0 2348.7 0 2272.8 0C2197 0 2121 0 2045.2 0C1969.3 0 1893.7 0 1818 0C1742.3 0 1666.7 0 1591 0C1515.3 0 1439.7 0 1363.8 0C1288 0 1212 0 1136.2 0C1060.3 0 984.7 0 909 0C833.3 0 757.7 0 682 0C606.3 0 530.7 0 454.8 0C379 0 303 0 227.2 0C151.3 0 75.7 0 37.8 0L0 0Z" fill="#0b1b2b">
    <animate attributeName="d" dur="5s" repeatCount="indefinite" values="
      M0 153L37.8 153.2C75.7 153.3 151.3 153.7 227.2 150.7C303 147.7 379 141.3 454.8 130.8C530.7 120.3 606.3 105.7 682 115.2C757.7 124.7 833.3 158.3 909 161C984.7 163.7 1060.3 135.3 1136.2 123.3C1212 111.3 1288 115.7 1363.8 121C1439.7 126.3 1515.3 132.7 1591 140.5C1666.7 148.3 1742.3 157.7 1818 160.5C1893.7 163.3 1969.3 159.7 2045.2 147.7C2121 135.7 2197 115.3 2272.8 107.5C2348.7 99.7 2424.3 104.3 2462.2 106.7L2500 109L2500 0L2462.2 0C2424.3 0 2348.7 0 2272.8 0C2197 0 2121 0 2045.2 0C1969.3 0 1893.7 0 1818 0C1742.3 0 1666.7 0 1591 0C1515.3 0 1439.7 0 1363.8 0C1288 0 1212 0 1136.2 0C1060.3 0 984.7 0 909 0C833.3 0 757.7 0 682 0C606.3 0 530.7 0 454.8 0C379 0 303 0 227.2 0C151.3 0 75.7 0 37.8 0L0 0Z;
      M0 160L37.8 165C75.7 170 151.3 180 227.2 182C303 184 379 178 454.8 167C530.7 156 606.3 140 682 138C757.7 136 833.3 148 909 148C984.7 148 1060.3 136 1136.2 132C1212 128 1288 132 1363.8 138C1439.7 144 1515.3 152 1591 160C1666.7 168 1742.3 176 1818 180C1893.7 184 1969.3 184 2045.2 180C2121 176 2197 168 2272.8 162C2348.7 156 2424.3 152 2462.2 150L2500 148L2500 0L2462.2 0C2424.3 0 2348.7 0 2272.8 0C2197 0 2121 0 2045.2 0C1969.3 0 1893.7 0 1818 0C1742.3 0 1666.7 0 1591 0C1515.3 0 1439.7 0 1363.8 0C1288 0 1212 0 1136.2 0C1060.3 0 984.7 0 909 0C833.3 0 757.7 0 682 0C606.3 0 530.7 0 454.8 0C379 0 303 0 227.2 0C151.3 0 75.7 0 37.8 0L0 0Z;
      M0 153L37.8 153.2C75.7 153.3 151.3 153.7 227.2 150.7C303 147.7 379 141.3 454.8 130.8C530.7 120.3 606.3 105.7 682 115.2C757.7 124.7 833.3 158.3 909 161C984.7 163.7 1060.3 135.3 1136.2 123.3C1212 111.3 1288 115.7 1363.8 121C1439.7 126.3 1515.3 132.7 1591 140.5C1666.7 148.3 1742.3 157.7 1818 160.5C1893.7 163.3 1969.3 159.7 2045.2 147.7C2121 135.7 2197 115.3 2272.8 107.5C2348.7 99.7 2424.3 104.3 2462.2 106.7L2500 109L2500 0L2462.2 0C2424.3 0 2348.7 0 2272.8 0C2197 0 2121 0 2045.2 0C1969.3 0 1893.7 0 1818 0C1742.3 0 1666.7 0 1591 0C1515.3 0 1439.7 0 1363.8 0C1288 0 1212 0 1136.2 0C1060.3 0 984.7 0 909 0C833.3 0 757.7 0 682 0C606.3 0 530.7 0 454.8 0C379 0 303 0 227.2 0C151.3 0 75.7 0 37.8 0L0 0Z"/>
  </path>
</svg>